<?xml version="1.0" standalone="no"?>
<!DOCTYPE svg PUBLIC "-//W3C//DTD SVG 20010904//EN"
 "http://www.w3.org/TR/2001/REC-SVG-20010904/DTD/svg10.dtd">
<svg version="1.0" xmlns="http://www.w3.org/2000/svg"
 width="480.000000pt" height="622.000000pt" viewBox="0 0 480.000000 622.000000"
 preserveAspectRatio="xMidYMid meet">
<metadata>
Created by potrace 1.16, written by Peter Selinger 2001-2019
</metadata>
<g transform="translate(0.000000,622.000000) scale(0.100000,-0.100000)"
fill="#000000" stroke="none">
<path d="M1860 5046 c0 -6 1782 -1786 1789 -1786 3 0 -397 403 -889 895 -492
492 -896 895 -897 895 -2 0 -3 -2 -3 -4z"/>
<path d="M1290 4669 c0 -3 324 -330 720 -726 396 -396 720 -718 720 -714 0 3
-324 330 -720 726 -396 396 -720 717 -720 714z"/>
<path d="M2909 2226 c-475 -476 -889 -891 -919 -923 -30 -32 360 356 868 862
507 506 922 921 922 922 0 9 -89 -79 -871 -861z"/>
</g>
</svg>
